# xmcd
#
# Track frame offsets: 
#        150
#        15930
#        38972
#        48334
#        74908
#        105461
#        123818
#        154357
#        175152
#        200277
#        216378
#        235840
#        266099
#        280081
#        295186
#
# Disc length: 4165 seconds
#
# Revision: 3
# Processed by: cddbd v1.5.2PL0 Copyright (c) Steve Scherf et al.
# Submitted via: ExactAudioCopy v0.99pb4
#
DISCID=db10430f
DTITLE=Bill Wyman's Bootleg Kings - Jump, Jive And Wail - The Very Bes
DTITLE=t Of [CD 1)
DYEAR=2006
DGENRE=Rock and Roll
TTITLE0=Let The Good Times Roll
TTITLE1=Stagger Lee
TTITLE2=Rockin' Pneumonia and The Boogie Woogie Flu
TTITLE3=Georgia On My Mind
TTITLE4=Land Of A Thousand Dances | Tequila
TTITLE5=Good Golly Miss Molly
TTITLE6=Tear It Up
TTITLE7=I'm Ready
TTITLE8=Lead Me To The Water
TTITLE9=Baby Workout
TTITLE10=Jump, Jive and Wail
TTITLE11=Mystery Train
TTITLE12=I'll Be Satisfied
TTITLE13=Hello Little Boy
TTITLE14=Baby, You've Got What It Takes
EXTD=Label: Sanctuary Records Group Ltd. - Castle Music\nCMDDD1438\nAl
EXTD=l tracks digitally remastered
EXTT0=
EXTT1=
EXTT2=
EXTT3=
EXTT4=
EXTT5=
EXTT6=
EXTT7=
EXTT8=
EXTT9=
EXTT10=
EXTT11=
EXTT12=
EXTT13=
EXTT14=
PLAYORDER=
